<?xml version="1.0" encoding="utf-8"?>
<svg xmlns="http://www.w3.org/2000/svg" style="margin: auto; background: none; display: block; shape-rendering: auto;" width="280" height="250" preserveAspectRatio="xMidYMid">
<style type="text/css">
  text {
    text-anchor: middle; font-size: 23px; opacity: 0;
  }
</style>
<g style="transform-origin: 140px 125px; transform: scale(0.2875);">
<g transform="translate(140,125)">
  <g transform="translate(0,0)"><g class="path" style="transform: matrix(1, 0, 0, 1, 0, 0); transform-origin: -382px -7.92049px; animation: 1s linear -0.631304s infinite normal forwards running bounce-b487d935-772c-4779-9267-f8bdede38644;"><path d="M52.24 0L15.12 0L3.68 0.24L3.68 0.24Q3.20-1.20 3.68-2.64L3.68-2.64L10.32-3.52L10.32-3.52Q10.64-7.60 10.64-12.96L10.64-12.96L10.64-60.16L4.16-60.96L4.16-60.96Q3.84-62.16 4.16-63.92L4.16-63.92L4.16-63.92Q8.56-63.60 15.12-63.60L15.12-63.60L15.12-63.60Q20.96-63.60 26.16-63.84L26.16-63.84L26.16-63.84Q26.64-62.40 26.16-60.96L26.16-60.96L19.52-60L19.52-60Q19.20-56.96 19.20-50.64L19.20-50.64L19.20-4.08L45.60-4.08L49.36-18.56L49.36-18.56Q50.56-18.88 52.32-18.56L52.32-18.56L52.24 0" fill="#000000" stroke="none" stroke-width="none" transform="translate(-409.8799743652344,23.919513204823367)" style="fill: rgb(0, 0, 0);"></path></g><g class="path" style="transform: matrix(1, 0, 0, 1, 0, 0); transform-origin: -331.88px 2.55951px; animation: 1s linear -0.602609s infinite normal forwards running bounce-b487d935-772c-4779-9267-f8bdede38644;"><path d="M57.76-21.28L57.76-21.28L57.76-21.28Q57.76-26.08 59.16-30.28L59.16-30.28L59.16-30.28Q60.56-34.48 63.20-37.60L63.20-37.60L63.20-37.60Q65.84-40.72 69.56-42.52L69.56-42.52L69.56-42.52Q73.28-44.32 77.92-44.32L77.92-44.32L77.92-44.32Q82.48-44.32 86.24-42.52L86.24-42.52L86.24-42.52Q90-40.72 92.68-37.60L92.68-37.60L92.68-37.60Q95.36-34.48 96.80-30.28L96.80-30.28L96.80-30.28Q98.24-26.08 98.24-21.28L98.24-21.28L98.24-21.28Q98.24-16.32 96.76-12.16L96.76-12.16L96.76-12.16Q95.28-8 92.60-4.92L92.60-4.92L92.60-4.92Q89.92-1.84 86.16-0.12L86.16-0.12L86.16-0.12Q82.40 1.60 77.92 1.60L77.92 1.60L77.92 1.60Q73.20 1.60 69.48-0.08L69.48-0.08L69.48-0.08Q65.76-1.76 63.16-4.80L63.16-4.80L63.16-4.80Q60.56-7.84 59.16-12.04L59.16-12.04L59.16-12.04Q57.76-16.24 57.76-21.28zM69.44-36L69.44-36L69.44-36Q66-31.12 66-21.28L66-21.28L66-21.28Q66-16.40 66.92-12.72L66.92-12.72L66.92-12.72Q67.84-9.04 69.44-6.60L69.44-6.60L69.44-6.60Q71.04-4.16 73.20-2.96L73.20-2.96L73.20-2.96Q75.36-1.76 77.92-1.76L77.92-1.76L77.92-1.76Q80.40-1.76 82.64-2.96L82.64-2.96L82.64-2.96Q84.88-4.16 86.48-6.60L86.48-6.60L86.48-6.60Q88.08-9.04 89.04-12.72L89.04-12.72L89.04-12.72Q90-16.40 90-21.28L90-21.28L90-21.28Q90-26.16 89.04-29.88L89.04-29.88L89.04-29.88Q88.08-33.60 86.44-36.04L86.44-36.04L86.44-36.04Q84.80-38.48 82.60-39.72L82.60-39.72L82.60-39.72Q80.40-40.96 77.92-40.96L77.92-40.96L77.92-40.96Q72.96-40.96 69.44-36" fill="#000000" stroke="none" stroke-width="none" transform="translate(-409.8799743652344,23.919513204823367)" style="fill: rgb(0, 0, 0);"></path></g><g class="path" style="transform: matrix(1, 0, 0, 1, 0, 0); transform-origin: -285.52px 2.55951px; animation: 1s linear -0.573913s infinite normal forwards running bounce-b487d935-772c-4779-9267-f8bdede38644;"><path d="M112.48-10.64L112.48-10.64L112.48-10.64Q112.48-6.48 114-4.76L114-4.76L114-4.76Q115.52-3.04 118.80-3.04L118.80-3.04L118.80-3.04Q121.20-3.04 124.12-4.52L124.12-4.52L124.12-4.52Q127.04-6 129.52-8.80L129.52-8.80L129.52-21.28L129.52-21.28Q121.28-20.80 116.88-18.36L116.88-18.36L116.88-18.36Q112.48-15.92 112.48-10.64zM129.52-24.16L129.52-24.16L129.52-28.24L129.52-28.24Q129.52-35.04 127.96-38.12L127.96-38.12L127.96-38.12Q126.40-41.20 122.80-41.20L122.80-41.20L122.80-41.20Q119.12-41.20 116.88-38.84L116.88-38.84L116.88-38.84Q114.64-36.48 113.84-30.80L113.84-30.80L113.84-30.80Q111.28-30.24 110.08-30.24L110.08-30.24L110.08-30.24Q106.96-30.24 106.40-32.48L106.40-32.48L106.40-32.48Q106.40-37.92 111.12-41.12L111.12-41.12L111.12-41.12Q115.84-44.32 122.88-44.32L122.88-44.32L122.88-44.32Q130.64-44.32 133.88-41.16L133.88-41.16L133.88-41.16Q137.12-38 137.12-29.84L137.12-29.84L137.12-7.28L137.12-7.28Q137.12-5.28 137.36-3.84L137.36-3.84L143.68-3.04L143.68-3.04Q144-1.84 143.68 0L143.68 0L143.68 0Q138 0.24 131.60 1.12L131.60 1.12L131.60 1.12Q130.96 0.48 130.80-0.48L130.80-0.48L130.40-6L130.40-6Q123.76 1.60 115.60 1.60L115.60 1.60L115.60 1.60Q110.56 1.60 107.72-1.28L107.72-1.28L107.72-1.28Q104.88-4.16 104.88-9.04L104.88-9.04L104.88-9.04Q104.88-16.40 111.56-20.16L111.56-20.16L111.56-20.16Q118.24-23.92 129.52-24.16" fill="#000000" stroke="none" stroke-width="none" transform="translate(-409.8799743652344,23.919513204823367)" style="fill: rgb(0, 0, 0);"></path></g><g class="path" style="transform: matrix(1, 0, 0, 1, 0, 0); transform-origin: -239.34px -7.88049px; animation: 1s linear -0.545217s infinite normal forwards running bounce-b487d935-772c-4779-9267-f8bdede38644;"><path d="M186.48-50.72L186.48-11.36L186.48-11.36Q186.48-6 186.72-3.84L186.72-3.84L193.04-3.04L193.04-3.04Q193.28-1.76 193.04 0L193.04 0L193.04 0Q187.20 0.24 180.88 1.12L180.88 1.12L180.88 1.12Q180.32 0.56 180.08-0.40L180.08-0.40L179.68-5.52L179.68-5.52Q176.88-2.24 172.72-0.28L172.72-0.28L172.72-0.28Q168.56 1.68 164 1.68L164 1.68L164 1.68Q157.04 1.68 152.48-4.12L152.48-4.12L152.48-4.12Q147.92-9.92 147.92-19.60L147.92-19.60L147.92-19.60Q147.92-30.80 153.88-37.56L153.88-37.56L153.88-37.56Q159.84-44.32 168.16-44.32L168.16-44.32L168.16-44.32Q174.72-44.32 178.88-41.20L178.88-41.20L178.88-51.92L178.88-51.92Q178.88-57.20 178.64-59.76L178.64-59.76L172.32-60.56L172.32-60.56Q172-61.76 172.32-63.60L172.32-63.60L172.32-63.60Q177.84-64 186.08-65.28L186.08-65.28L186.08-65.28Q186.80-64.48 186.88-63.68L186.88-63.68L186.88-63.68Q186.48-61.60 186.48-50.72L186.48-50.72zM167.52-40L167.52-40L167.52-40Q162.32-40 159.20-34.52L159.20-34.52L159.20-34.52Q156.08-29.04 156.08-19.36L156.08-19.36L156.08-19.36Q156.08-11.44 159-7.28L159-7.28L159-7.28Q161.92-3.12 166.72-3.12L166.72-3.12L166.72-3.12Q169.60-3.12 173.04-4.92L173.04-4.92L173.04-4.92Q176.48-6.72 178.88-9.92L178.88-9.92L178.88-35.52L178.88-35.52Q174.96-40 167.52-40" fill="#000000" stroke="none" stroke-width="none" transform="translate(-409.8799743652344,23.919513204823367)" style="fill: rgb(0, 0, 0);"></path></g><g class="path" style="transform: matrix(1, 0, 0, 1, 0, 0); transform-origin: -202.76px 1.91951px; animation: 1s linear -0.516522s infinite normal forwards running bounce-b487d935-772c-4779-9267-f8bdede38644;"><path d="M211.04-29.76L211.04-29.76L211.04-4.08L217.52-2.88L217.52-2.88Q217.60-2.48 217.64-2.16L217.64-2.16L217.64-2.16Q217.68-1.84 217.68-1.44L217.68-1.44L217.68-1.44Q217.68-1.04 217.64-0.60L217.64-0.60L217.64-0.60Q217.60-0.16 217.52 0.32L217.52 0.32L217.52 0.32Q212.48 0.08 207.20 0.08L207.20 0.08L207.20 0.08Q205.36 0.08 202.76 0.12L202.76 0.12L202.76 0.12Q200.16 0.16 196.80 0.24L196.80 0.24L196.80 0.24Q196.56-0.48 196.56-1.28L196.56-1.28L196.56-1.28Q196.56-2 196.80-2.88L196.80-2.88L203.12-3.76L203.12-3.76Q203.28-6 203.36-8.52L203.36-8.52L203.36-8.52Q203.44-11.04 203.44-13.92L203.44-13.92L203.44-30.96L203.44-30.96Q203.44-36.24 203.20-38.80L203.20-38.80L196.88-39.60L196.88-39.60Q196.72-40 196.72-40.96L196.72-40.96L196.72-40.96Q196.72-41.36 196.72-41.76L196.72-41.76L196.72-41.76Q196.72-42.16 196.88-42.64L196.88-42.64L196.88-42.64Q202.32-42.96 210.64-44.32L210.64-44.32L210.64-44.32Q211.36-43.52 211.44-42.72L211.44-42.72L211.44-42.72Q211.04-40.48 211.04-29.76" fill="#000000" stroke="none" stroke-width="none" transform="translate(-409.8799743652344,23.919513204823367)" style="fill: rgb(0, 0, 0);"></path></g><g class="path" style="transform: matrix(1, 0, 0, 1, 0, 0); transform-origin: -204.76px -35.8005px; animation: 1s linear -0.487826s infinite normal forwards running bounce-b487d935-772c-4779-9267-f8bdede38644;"><path d="M199.36-58.32L199.36-58.32L199.36-58.32Q199.20-58.72 199.20-59.16L199.20-59.16L199.20-59.16Q199.20-59.60 199.20-60L199.20-60L199.20-60Q199.20-62.16 201-63.48L201-63.48L201-63.48Q202.80-64.80 205.44-64.80L205.44-64.80L205.44-64.80Q207.92-64.80 209.48-63.32L209.48-63.32L209.48-63.32Q211.04-61.84 211.04-59.28L211.04-59.28L211.04-59.28Q211.04-57.20 209.24-55.92L209.24-55.92L209.24-55.92Q207.44-54.64 204.64-54.64L204.64-54.64L204.64-54.64Q202.72-54.64 201.24-55.60L201.24-55.60L201.24-55.60Q199.76-56.56 199.36-58.32" fill="#000000" stroke="none" stroke-width="none" transform="translate(-409.8799743652344,23.919513204823367)" style="fill: rgb(0, 0, 0);"></path></g><g class="path" style="transform: matrix(1, 0, 0, 1, 0, 0); transform-origin: -164.64px 1.91951px; animation: 1s linear -0.45913s infinite normal forwards running bounce-b487d935-772c-4779-9267-f8bdede38644;"><path d="M254.88-13.92L254.88-28.56L254.88-28.56Q254.88-34.72 253.24-37.20L253.24-37.20L253.24-37.20Q251.60-39.68 247.76-39.68L247.76-39.68L247.76-39.68Q241.84-39.68 235.84-30.80L235.84-30.80L235.84-4.08L242.32-2.88L242.32-2.88Q242.64-1.60 242.32 0.32L242.32 0.32L242.32 0.32Q237.28 0.08 232.00 0.08L232.00 0.08L232.00 0.08Q228.32 0.08 221.60 0.24L221.60 0.24L221.60 0.24Q221.12-1.28 221.60-2.88L221.60-2.88L227.92-3.76L227.92-3.76Q228.24-8.16 228.24-13.92L228.24-13.92L228.24-35.84L228.24-35.84Q228.24-37.44 228.00-38.80L228.00-38.80L221.68-39.60L221.68-39.60Q221.36-40.80 221.68-42.64L221.68-42.64L221.68-42.64Q227.20-43.04 235.44-44.32L235.44-44.32L235.44-44.32Q236.16-43.52 236.24-42.72L236.24-42.72L236.24-42.72Q235.84-40.64 235.84-35.60L235.84-35.60L235.84-35.60Q242.16-44.32 250.08-44.32L250.08-44.32L250.08-44.32Q262.48-44.32 262.48-32.56L262.48-32.56L262.48-4.08L268.96-2.88L268.96-2.88Q269.28-1.60 268.96 0.32L268.96 0.32L268.96 0.32Q263.92 0.08 258.64 0.08L258.64 0.08L258.64 0.08Q254.96 0.08 248.24 0.24L248.24 0.24L248.24 0.24Q247.76-1.28 248.24-2.88L248.24-2.88L254.56-3.76L254.56-3.76Q254.88-8.16 254.88-13.92L254.88-13.92" fill="#000000" stroke="none" stroke-width="none" transform="translate(-409.8799743652344,23.919513204823367)" style="fill: rgb(0, 0, 0);"></path></g><g class="path" style="transform: matrix(1, 0, 0, 1, 0, 0); transform-origin: -117.76px 8.27951px; animation: 1s linear -0.430435s infinite normal forwards running bounce-b487d935-772c-4779-9267-f8bdede38644;"><path d="M279.76 0.88L279.76 0.88L279.76 0.88Q280.48 1.20 280.96 2.24L280.96 2.24L280.96 2.24Q278.32 4.40 278.32 8.72L278.32 8.72L278.32 8.72Q278.32 12.56 281.84 14.88L281.84 14.88L281.84 14.88Q285.36 17.20 290.96 17.20L290.96 17.20L290.96 17.20Q296.72 17.20 300.56 15.08L300.56 15.08L300.56 15.08Q304.40 12.96 304.40 9.12L304.40 9.12L304.40 9.12Q304.40 4.96 302.88 3L302.88 3L302.88 3Q301.36 1.04 296.80 0.64L296.80 0.64L281.84-0.72L281.84-0.72Q279.36-1.04 277.72-3.32L277.72-3.32L277.72-3.32Q276.08-5.60 276.08-7.76L276.08-7.76L281.44-16.64L281.44-16.64Q277.76-18.72 275.88-22.16L275.88-22.16L275.88-22.16Q274-25.60 274-29.20L274-29.20L274-29.20Q274-36 279.04-40.16L279.04-40.16L279.04-40.16Q284.08-44.32 290.64-44.32L290.64-44.32L290.64-44.32Q296.96-44.32 301.76-40.96L301.76-40.96L301.76-40.96Q302.16-51.92 309.92-52.32L309.92-52.32L309.92-52.32Q312-51.84 312-48.88L312-48.88L312-48.88Q312-47.28 311.68-45.36L311.68-45.36L311.68-45.36Q308.56-45.12 306.56-43.32L306.56-43.32L306.56-43.32Q304.56-41.52 303.68-39.20L303.68-39.20L303.68-39.20Q307.68-35.20 307.68-29.20L307.68-29.20L307.68-29.20Q307.68-22.88 302.56-18.68L302.56-18.68L302.56-18.68Q297.44-14.48 290.64-14.48L290.64-14.48L290.64-14.48Q287.04-14.48 284.16-15.44L284.16-15.44L281.44-8.32L301.36-6.32L301.36-6.32Q306-5.76 308.44-2.92L308.44-2.92L308.44-2.92Q310.88-0.08 310.88 4.48L310.88 4.48L310.88 4.48Q310.88 12.48 305.12 16.76L305.12 16.76L305.12 16.76Q299.36 21.04 289.52 21.04L289.52 21.04L289.52 21.04Q281.36 21.04 276.80 18.08L276.80 18.08L276.80 18.08Q272.24 15.12 272.24 10.16L272.24 10.16L272.24 10.16Q272.24 6.80 274.40 4.20L274.40 4.20L274.40 4.20Q276.56 1.60 279.76 0.88zM281.20-29.20L281.20-29.20L281.20-29.20Q281.20-24.56 283.80-21.28L283.80-21.28L283.80-21.28Q286.40-18 290.72-18L290.72-18L290.72-18Q294.96-18 297.68-21.24L297.68-21.24L297.68-21.24Q300.40-24.48 300.40-29.20L300.40-29.20L300.40-29.20Q300.40-34.32 297.72-37.72L297.72-37.72L297.72-37.72Q295.04-41.12 290.72-41.12L290.72-41.12L290.72-41.12Q286.64-41.12 283.92-37.68L283.92-37.68L283.92-37.68Q281.20-34.24 281.20-29.20" fill="#000000" stroke="none" stroke-width="none" transform="translate(-409.8799743652344,23.919513204823367)" style="fill: rgb(0, 0, 0);"></path></g><g class="path" style="transform: matrix(1, 0, 0, 1, 0, 0); transform-origin: -89.64px 25.3195px; animation: 1s linear -0.401739s infinite normal forwards running bounce-b487d935-772c-4779-9267-f8bdede38644;"><path d="M316.72 11.68L316.72 11.68L316.72 11.68Q314.96 11.44 314.32 9.36L314.32 9.36L314.32 9.36Q319.68 6.40 321.36 1.04L321.36 1.04L321.12 1.04L321.12 1.04Q319.04 1.04 317.56-0.44L317.56-0.44L317.56-0.44Q316.08-1.92 316.08-4L316.08-4L316.08-4Q316.08-6.08 317.52-7.48L317.52-7.48L317.52-7.48Q318.96-8.88 321.04-8.88L321.04-8.88L321.04-8.88Q323.20-8.88 324.68-7.40L324.68-7.40L324.68-7.40Q326.16-5.92 326.16-3.60L326.16-3.60L326.16-3.60Q326.16 1.60 323.68 5.08L323.68 5.08L323.68 5.08Q321.20 8.56 316.72 11.68" fill="#000000" stroke="none" stroke-width="none" transform="translate(-409.8799743652344,23.919513204823367)" style="fill: rgb(0, 0, 0);"></path></g><g class="path" style="transform: matrix(1, 0, 0, 1, 0, 0); transform-origin: -32.96px -8.24049px; animation: 1s linear -0.373043s infinite normal forwards running bounce-b487d935-772c-4779-9267-f8bdede38644;"><path d="M354.08-63.92L354.08-63.92L354.08-63.92Q357.36-63.92 364.52-64.24L364.52-64.24L364.52-64.24Q371.68-64.56 377.52-64.56L377.52-64.56L377.52-64.56Q389.92-64.56 395.20-59.72L395.20-59.72L395.20-59.72Q400.48-54.88 400.48-46.24L400.48-46.24L400.48-46.24Q400.48-38.56 393.64-33.36L393.64-33.36L393.64-33.36Q386.80-28.16 377.36-28.16L377.36-28.16L377.36-28.16Q372.48-28.16 369.12-28.64L369.12-28.64L369.12-3.52L376.40-2.72L376.40-2.72Q376.72-1.52 376.40 0.24L376.40 0.24L376.40 0.24Q371.36 0 365.04 0L365.04 0L365.04 0Q360.32 0 353.60 0.16L353.60 0.16L353.60 0.16Q353.12-1.28 353.60-2.72L353.60-2.72L360.24-3.68L360.24-3.68Q360.56-6.72 360.56-13.04L360.56-13.04L360.56-60.16L354.08-60.96L354.08-60.96Q353.76-62.16 354.08-63.92zM369.12-50.64L369.12-50.64L369.12-31.92L369.12-31.92Q371.60-31.60 376.32-31.60L376.32-31.60L376.32-31.60Q380.48-31.60 383.48-33L383.48-33L383.48-33Q386.48-34.40 388.00-36.76L388.00-36.76L388.00-36.76Q389.52-39.12 390.16-41.52L390.16-41.52L390.16-41.52Q390.80-43.92 390.80-46.64L390.80-46.64L390.80-46.64Q390.80-53.60 387.28-57.40L387.28-57.40L387.28-57.40Q383.76-61.20 375.52-61.20L375.52-61.20L375.52-61.20Q372.56-61.20 369.60-60.64L369.60-60.64L369.60-60.64Q369.12-56.08 369.12-50.64" fill="#000000" stroke="none" stroke-width="none" transform="translate(-409.8799743652344,23.919513204823367)" style="fill: rgb(0, 0, 0);"></path></g><g class="path" style="transform: matrix(1, 0, 0, 1, 0, 0); transform-origin: 4.76004px -8.56049px; animation: 1s linear -0.344348s infinite normal forwards running bounce-b487d935-772c-4779-9267-f8bdede38644;"><path d="M418.56-50.72L418.56-50.72L418.56-4.08L425.04-2.88L425.04-2.88Q425.36-1.60 425.04 0.32L425.04 0.32L425.04 0.32Q420.00 0.08 414.72 0.08L414.72 0.08L414.72 0.08Q411.04 0.08 404.32 0.24L404.32 0.24L404.32 0.24Q403.84-1.28 404.32-2.88L404.32-2.88L410.64-3.76L410.64-3.76Q410.96-8.16 410.96-13.92L410.96-13.92L410.96-59.76L404.40-60.56L404.40-60.56Q404.08-61.76 404.40-63.60L404.40-63.60L404.40-63.60Q409.92-64 418.16-65.28L418.16-65.28L418.16-65.28Q418.88-64.48 418.96-63.68L418.96-63.68L418.96-63.68Q418.56-61.60 418.56-50.72" fill="#000000" stroke="none" stroke-width="none" transform="translate(-409.8799743652344,23.919513204823367)" style="fill: rgb(0, 0, 0);"></path></g><g class="path" style="transform: matrix(1, 0, 0, 1, 0, 0); transform-origin: 37.92px 2.55951px; animation: 1s linear -0.315652s infinite normal forwards running bounce-b487d935-772c-4779-9267-f8bdede38644;"><path d="M463.60-22.56L463.60-22.56L438.48-22.56L438.48-22.56Q437.76-2.16 450.72-2.16L450.72-2.16L450.72-2.16Q456.24-2.16 462.00-7.04L462.00-7.04L462.00-7.04Q463.20-6.32 463.84-4.56L463.84-4.56L463.84-4.56Q458.32 1.60 449.84 1.60L449.84 1.60L449.84 1.60Q430.32 1.60 430.32-21.36L430.32-21.36L430.32-21.36Q430.32-32.24 436.08-38.28L436.08-38.28L436.08-38.28Q441.84-44.32 449.52-44.32L449.52-44.32L449.52-44.32Q457.92-44.32 461.60-38.48L461.60-38.48L461.60-38.48Q465.28-32.64 465.28-23.28L465.28-23.28L465.28-23.28Q464.48-22.64 463.60-22.56zM449.36-41.12L449.36-41.12L449.36-41.12Q445.20-41.12 442.28-36.80L442.28-36.80L442.28-36.80Q439.36-32.48 438.72-25.76L438.72-25.76L448.64-25.76L448.64-25.76Q454.56-25.76 457.12-26.48L457.12-26.48L457.12-26.48Q457.12-33.04 455.12-37.08L455.12-37.08L455.12-37.08Q453.12-41.12 449.36-41.12" fill="#000000" stroke="none" stroke-width="none" transform="translate(-409.8799743652344,23.919513204823367)" style="fill: rgb(0, 0, 0);"></path></g><g class="path" style="transform: matrix(1, 0, 0, 1, 0, 0); transform-origin: 81.52px 2.55951px; animation: 1s linear -0.286957s infinite normal forwards running bounce-b487d935-772c-4779-9267-f8bdede38644;"><path d="M479.52-10.64L479.52-10.64L479.52-10.64Q479.52-6.48 481.04-4.76L481.04-4.76L481.04-4.76Q482.56-3.04 485.84-3.04L485.84-3.04L485.84-3.04Q488.24-3.04 491.16-4.52L491.16-4.52L491.16-4.52Q494.08-6 496.56-8.80L496.56-8.80L496.56-21.28L496.56-21.28Q488.32-20.80 483.92-18.36L483.92-18.36L483.92-18.36Q479.52-15.92 479.52-10.64zM496.56-24.16L496.56-24.16L496.56-28.24L496.56-28.24Q496.56-35.04 495.00-38.12L495.00-38.12L495.00-38.12Q493.44-41.20 489.84-41.20L489.84-41.20L489.84-41.20Q486.16-41.20 483.92-38.84L483.92-38.84L483.92-38.84Q481.68-36.48 480.88-30.80L480.88-30.80L480.88-30.80Q478.32-30.24 477.12-30.24L477.12-30.24L477.12-30.24Q474.00-30.24 473.44-32.48L473.44-32.48L473.44-32.48Q473.44-37.92 478.16-41.12L478.16-41.12L478.16-41.12Q482.88-44.32 489.92-44.32L489.92-44.32L489.92-44.32Q497.68-44.32 500.92-41.16L500.92-41.16L500.92-41.16Q504.16-38 504.16-29.84L504.16-29.84L504.16-7.28L504.16-7.28Q504.16-5.28 504.40-3.84L504.40-3.84L510.72-3.04L510.72-3.04Q511.04-1.84 510.72 0L510.72 0L510.72 0Q505.04 0.24 498.64 1.12L498.64 1.12L498.64 1.12Q498.00 0.48 497.84-0.48L497.84-0.48L497.44-6L497.44-6Q490.80 1.60 482.64 1.60L482.64 1.60L482.64 1.60Q477.60 1.60 474.76-1.28L474.76-1.28L474.76-1.28Q471.92-4.16 471.92-9.04L471.92-9.04L471.92-9.04Q471.92-16.40 478.60-20.16L478.60-20.16L478.60-20.16Q485.28-23.92 496.56-24.16" fill="#000000" stroke="none" stroke-width="none" transform="translate(-409.8799743652344,23.919513204823367)" style="fill: rgb(0, 0, 0);"></path></g><g class="path" style="transform: matrix(1, 0, 0, 1, 0, 0); transform-origin: 120.08px 2.55951px; animation: 1s linear -0.258261s infinite normal forwards running bounce-b487d935-772c-4779-9267-f8bdede38644;"><path d="M529.20-1.92L529.20-1.92L529.20-1.92Q533.52-1.92 535.60-3.92L535.60-3.92L535.60-3.92Q537.68-5.92 537.68-8.56L537.68-8.56L537.68-8.56Q537.68-10.08 537.20-11.36L537.20-11.36L537.20-11.36Q536.72-12.64 535.64-13.84L535.64-13.84L535.64-13.84Q534.56-15.04 532.80-16.20L532.80-16.20L532.80-16.20Q531.04-17.36 528.40-18.72L528.40-18.72L528.40-18.72Q525.12-20.40 522.76-21.92L522.76-21.92L522.76-21.92Q520.40-23.44 518.88-25.12L518.88-25.12L518.88-25.12Q517.36-26.80 516.60-28.72L516.60-28.72L516.60-28.72Q515.84-30.64 515.84-33.04L515.84-33.04L515.84-33.04Q515.84-35.92 516.88-38.04L516.88-38.04L516.88-38.04Q517.92-40.16 519.80-41.56L519.80-41.56L519.80-41.56Q521.68-42.96 524.24-43.64L524.24-43.64L524.24-43.64Q526.80-44.32 529.92-44.32L529.92-44.32L529.92-44.32Q536.16-44.32 542.08-41.28L542.08-41.28L542.08-31.04L538.32-31.04L536.56-39.68L536.56-39.68Q533.04-41.36 529.12-41.36L529.12-41.36L529.12-41.36Q522.56-41.36 522.56-36L522.56-36L522.56-36Q522.56-33.12 524.72-30.72L524.72-30.72L524.72-30.72Q526.88-28.32 531.68-25.92L531.68-25.92L531.68-25.92Q534.96-24.24 537.44-22.72L537.44-22.72L537.44-22.72Q539.92-21.20 541.56-19.52L541.56-19.52L541.56-19.52Q543.20-17.84 544.04-15.88L544.04-15.88L544.04-15.88Q544.88-13.92 544.88-11.44L544.88-11.44L544.88-11.44Q544.88-8.64 543.68-6.24L543.68-6.24L543.68-6.24Q542.48-3.84 540.32-2.12L540.32-2.12L540.32-2.12Q538.16-0.40 535.12 0.60L535.12 0.60L535.12 0.60Q532.08 1.60 528.40 1.60L528.40 1.60L528.40 1.60Q521.28 1.60 515.04-1.44L515.04-1.44L515.04-11.68L518.80-11.68L520.56-3.76L520.56-3.76Q524.64-1.92 529.20-1.92" fill="#000000" stroke="none" stroke-width="none" transform="translate(-409.8799743652344,23.919513204823367)" style="fill: rgb(0, 0, 0);"></path></g><g class="path" style="transform: matrix(1, 0, 0, 1, 0, 0); transform-origin: 159.44px 2.55951px; animation: 1s linear -0.229565s infinite normal forwards running bounce-b487d935-772c-4779-9267-f8bdede38644;"><path d="M585.12-22.56L585.12-22.56L560-22.56L560-22.56Q559.28-2.16 572.24-2.16L572.24-2.16L572.24-2.16Q577.76-2.16 583.52-7.04L583.52-7.04L583.52-7.04Q584.72-6.32 585.36-4.56L585.36-4.56L585.36-4.56Q579.84 1.60 571.36 1.60L571.36 1.60L571.36 1.60Q551.84 1.60 551.84-21.36L551.84-21.36L551.84-21.36Q551.84-32.24 557.60-38.28L557.60-38.28L557.60-38.28Q563.36-44.32 571.04-44.32L571.04-44.32L571.04-44.32Q579.44-44.32 583.12-38.48L583.12-38.48L583.12-38.48Q586.80-32.64 586.80-23.28L586.80-23.28L586.80-23.28Q586-22.64 585.12-22.56zM570.88-41.12L570.88-41.12L570.88-41.12Q566.72-41.12 563.80-36.80L563.80-36.80L563.80-36.80Q560.88-32.48 560.24-25.76L560.24-25.76L570.16-25.76L570.16-25.76Q576.08-25.76 578.64-26.48L578.64-26.48L578.64-26.48Q578.64-33.04 576.64-37.08L576.64-37.08L576.64-37.08Q574.64-41.12 570.88-41.12" fill="#000000" stroke="none" stroke-width="none" transform="translate(-409.8799743652344,23.919513204823367)" style="fill: rgb(0, 0, 0);"></path></g><g class="path" style="transform: matrix(1, 0, 0, 1, 0, 0); transform-origin: 233.52px 4.19951px; animation: 1s linear -0.20087s infinite normal forwards running bounce-b487d935-772c-4779-9267-f8bdede38644;"><path d="M671.12-38.88L654.88 3.52L653.20 3.52L642.64-25.84L631.68 3.52L630 3.52L614.64-38.80L609.60-39.76L609.60-39.76Q609.28-41.04 609.60-42.96L609.60-42.96L609.60-42.96Q614-42.64 619.12-42.64L619.12-42.64L619.12-42.64Q623.68-42.64 628.80-42.88L628.80-42.88L628.80-42.88Q629.28-41.28 628.80-39.76L628.80-39.76L622.64-38.80L629.04-20.64L629.04-20.64Q631.84-12.64 632.72-9.04L632.72-9.04L632.88-9.04L632.88-9.04Q634.80-15.92 636.64-20.24L636.64-20.24L640.72-31.20L638-38.80L632.96-39.76L632.96-39.76Q632.64-41.04 632.96-42.96L632.96-42.96L632.96-42.96Q637.36-42.64 642.48-42.64L642.48-42.64L642.48-42.64Q647.04-42.64 652.16-42.88L652.16-42.88L652.16-42.88Q652.64-41.28 652.16-39.76L652.16-39.76L646-38.80L652.16-20.64L652.16-20.64Q654.96-12.64 655.84-9.04L655.84-9.04L656-9.04L656-9.04Q657.92-15.92 659.76-20.24L659.76-20.24L666.72-39.12L660.48-39.76L660.48-39.76Q660.16-41.04 660.48-42.96L660.48-42.96L660.48-42.96Q664.88-42.64 668.72-42.64L668.72-42.64L668.72-42.64Q672-42.64 677.12-42.88L677.12-42.88L677.12-42.88Q677.60-41.28 677.12-39.76L677.12-39.76L671.12-38.88" fill="#000000" stroke="none" stroke-width="none" transform="translate(-409.8799743652344,23.919513204823367)" style="fill: rgb(0, 0, 0);"></path></g><g class="path" style="transform: matrix(1, 0, 0, 1, 0, 0); transform-origin: 289.76px 2.55951px; animation: 1s linear -0.172174s infinite normal forwards running bounce-b487d935-772c-4779-9267-f8bdede38644;"><path d="M687.76-10.64L687.76-10.64L687.76-10.64Q687.76-6.48 689.28-4.76L689.28-4.76L689.28-4.76Q690.80-3.04 694.08-3.04L694.08-3.04L694.08-3.04Q696.48-3.04 699.40-4.52L699.40-4.52L699.40-4.52Q702.32-6 704.80-8.80L704.80-8.80L704.80-21.28L704.80-21.28Q696.56-20.80 692.16-18.36L692.16-18.36L692.16-18.36Q687.76-15.92 687.76-10.64zM704.80-24.16L704.80-24.16L704.80-28.24L704.80-28.24Q704.80-35.04 703.24-38.12L703.24-38.12L703.24-38.12Q701.68-41.20 698.08-41.20L698.08-41.20L698.08-41.20Q694.40-41.20 692.16-38.84L692.16-38.84L692.16-38.84Q689.92-36.48 689.12-30.80L689.12-30.80L689.12-30.80Q686.56-30.24 685.36-30.24L685.36-30.24L685.36-30.24Q682.24-30.24 681.68-32.48L681.68-32.48L681.68-32.48Q681.68-37.92 686.40-41.12L686.40-41.12L686.40-41.12Q691.12-44.32 698.16-44.32L698.16-44.32L698.16-44.32Q705.92-44.32 709.16-41.16L709.16-41.16L709.16-41.16Q712.40-38 712.40-29.84L712.40-29.84L712.40-7.28L712.40-7.28Q712.40-5.28 712.64-3.84L712.64-3.84L718.96-3.04L718.96-3.04Q719.28-1.84 718.96 0L718.96 0L718.96 0Q713.28 0.24 706.88 1.12L706.88 1.12L706.88 1.12Q706.24 0.48 706.08-0.48L706.08-0.48L705.68-6L705.68-6Q699.04 1.60 690.88 1.60L690.88 1.60L690.88 1.60Q685.84 1.60 683.00-1.28L683.00-1.28L683.00-1.28Q680.16-4.16 680.16-9.04L680.16-9.04L680.16-9.04Q680.16-16.40 686.84-20.16L686.84-20.16L686.84-20.16Q693.52-23.92 704.80-24.16" fill="#000000" stroke="none" stroke-width="none" transform="translate(-409.8799743652344,23.919513204823367)" style="fill: rgb(0, 0, 0);"></path></g><g class="path" style="transform: matrix(1, 0, 0, 1, 0, 0); transform-origin: 322.52px 1.91951px; animation: 1s linear -0.143478s infinite normal forwards running bounce-b487d935-772c-4779-9267-f8bdede38644;"><path d="M736.32-29.76L736.32-29.76L736.32-4.08L742.80-2.88L742.80-2.88Q742.88-2.48 742.92-2.16L742.92-2.16L742.92-2.16Q742.96-1.84 742.96-1.44L742.96-1.44L742.96-1.44Q742.96-1.04 742.92-0.60L742.92-0.60L742.92-0.60Q742.88-0.16 742.80 0.32L742.80 0.32L742.80 0.32Q737.76 0.08 732.48 0.08L732.48 0.08L732.48 0.08Q730.64 0.08 728.04 0.12L728.04 0.12L728.04 0.12Q725.44 0.16 722.08 0.24L722.08 0.24L722.08 0.24Q721.84-0.48 721.84-1.28L721.84-1.28L721.84-1.28Q721.84-2 722.08-2.88L722.08-2.88L728.40-3.76L728.40-3.76Q728.56-6 728.64-8.52L728.64-8.52L728.64-8.52Q728.72-11.04 728.72-13.92L728.72-13.92L728.72-30.96L728.72-30.96Q728.72-36.24 728.48-38.80L728.48-38.80L722.16-39.60L722.16-39.60Q722-40 722-40.96L722-40.96L722-40.96Q722-41.36 722-41.76L722-41.76L722-41.76Q722-42.16 722.16-42.64L722.16-42.64L722.16-42.64Q727.60-42.96 735.92-44.32L735.92-44.32L735.92-44.32Q736.64-43.52 736.72-42.72L736.72-42.72L736.72-42.72Q736.32-40.48 736.32-29.76" fill="#000000" stroke="none" stroke-width="none" transform="translate(-409.8799743652344,23.919513204823367)" style="fill: rgb(0, 0, 0);"></path></g><g class="path" style="transform: matrix(1, 0, 0, 1, 0, 0); transform-origin: 320.52px -35.8005px; animation: 1s linear -0.114783s infinite normal forwards running bounce-b487d935-772c-4779-9267-f8bdede38644;"><path d="M724.64-58.32L724.64-58.32L724.64-58.32Q724.48-58.72 724.48-59.16L724.48-59.16L724.48-59.16Q724.48-59.60 724.48-60L724.48-60L724.48-60Q724.48-62.16 726.28-63.48L726.28-63.48L726.28-63.48Q728.08-64.80 730.72-64.80L730.72-64.80L730.72-64.80Q733.20-64.80 734.76-63.32L734.76-63.32L734.76-63.32Q736.32-61.84 736.32-59.28L736.32-59.28L736.32-59.28Q736.32-57.20 734.52-55.92L734.52-55.92L734.52-55.92Q732.72-54.64 729.92-54.64L729.92-54.64L729.92-54.64Q728-54.64 726.52-55.60L726.52-55.60L726.52-55.60Q725.04-56.56 724.64-58.32" fill="#000000" stroke="none" stroke-width="none" transform="translate(-409.8799743652344,23.919513204823367)" style="fill: rgb(0, 0, 0);"></path></g><g class="path" style="transform: matrix(1, 0, 0, 1, 0, 0); transform-origin: 349.12px -1.56049px; animation: 1s linear -0.086087s infinite normal forwards running bounce-b487d935-772c-4779-9267-f8bdede38644;"><path d="M759.68-52.32L759.68-52.32L759.68-40.88L770.96-40.88L770.96-40.88Q771.12-39.92 771.12-39.44L771.12-39.44L771.12-39.44Q771.12-38.72 770.96-37.76L770.96-37.76L759.68-36.08L759.68-14.08L759.68-14.08Q759.68-8.16 760.76-5.72L760.76-5.72L760.76-5.72Q761.84-3.28 764.16-3.28L764.16-3.28L764.16-3.28Q766.24-3.28 770.64-4.96L770.64-4.96L770.64-4.96Q771.44-4.24 771.76-2.24L771.76-2.24L771.76-2.24Q769.36-0.80 768.12-0.12L768.12-0.12L768.12-0.12Q766.88 0.56 765.00 1.08L765.00 1.08L765.00 1.08Q763.12 1.60 761.04 1.60L761.04 1.60L761.04 1.60Q757.04 1.60 754.52-1.48L754.52-1.48L754.52-1.48Q752.00-4.56 752.00-10.88L752.00-10.88L752.00-37.04L746.40-37.76L746.40-37.76Q746.24-38.56 746.24-39.12L746.24-39.12L746.24-39.12Q746.24-39.76 746.40-40.88L746.40-40.88L746.40-40.88Q748.64-41.28 750.28-42.28L750.28-42.28L750.28-42.28Q751.92-43.28 753.04-45.08L753.04-45.08L753.04-45.08Q754.16-46.88 754.76-48.28L754.76-48.28L754.76-48.28Q755.36-49.68 756.24-52.32L756.24-52.32L756.24-52.32Q756.96-52.56 758.00-52.56L758.00-52.56L758.00-52.56Q758.96-52.56 759.68-52.32" fill="#000000" stroke="none" stroke-width="none" transform="translate(-409.8799743652344,23.919513204823367)" style="fill: rgb(0, 0, 0);"></path></g><g class="path" style="transform: matrix(1, 0, 0, 1, 0, 0); transform-origin: 372.12px 19.9995px; animation: 1s linear -0.0573913s infinite normal forwards running bounce-b487d935-772c-4779-9267-f8bdede38644;"><path d="M781.92-8.88L781.92-8.88L781.92-8.88Q784.08-8.88 785.56-7.48L785.56-7.48L785.56-7.48Q787.04-6.08 787.04-4L787.04-4L787.04-4Q787.04-1.92 785.56-0.44L785.56-0.44L785.56-0.44Q784.08 1.04 782.00 1.04L782.00 1.04L782.00 1.04Q779.92 1.04 778.44-0.44L778.44-0.44L778.44-0.44Q776.96-1.92 776.96-4L776.96-4L776.96-4Q776.96-6.08 778.40-7.48L778.40-7.48L778.40-7.48Q779.84-8.88 781.92-8.88" fill="#000000" stroke="none" stroke-width="none" transform="translate(-409.8799743652344,23.919513204823367)" style="fill: rgb(0, 0, 0);"></path></g><g class="path" style="transform: matrix(1, 0, 0, 1, 0, 0); transform-origin: 390.2px 19.9995px; animation: 1s linear -0.0286957s infinite normal forwards running bounce-b487d935-772c-4779-9267-f8bdede38644;"><path d="M800-8.88L800-8.88L800-8.88Q802.16-8.88 803.64-7.48L803.64-7.48L803.64-7.48Q805.12-6.08 805.12-4L805.12-4L805.12-4Q805.12-1.92 803.64-0.44L803.64-0.44L803.64-0.44Q802.16 1.04 800.08 1.04L800.08 1.04L800.08 1.04Q798 1.04 796.52-0.44L796.52-0.44L796.52-0.44Q795.04-1.92 795.04-4L795.04-4L795.04-4Q795.04-6.08 796.48-7.48L796.48-7.48L796.48-7.48Q797.92-8.88 800-8.88" fill="#000000" stroke="none" stroke-width="none" transform="translate(-409.8799743652344,23.919513204823367)" style="fill: rgb(0, 0, 0);"></path></g><g class="path" style="transform: matrix(1, 0, 0, 1, 0, 0); transform-origin: 408.28px 19.9995px; animation: 1s linear 0s infinite normal forwards running bounce-b487d935-772c-4779-9267-f8bdede38644;"><path d="M818.08-8.88L818.08-8.88L818.08-8.88Q820.24-8.88 821.72-7.48L821.72-7.48L821.72-7.48Q823.20-6.08 823.20-4L823.20-4L823.20-4Q823.20-1.92 821.72-0.44L821.72-0.44L821.72-0.44Q820.24 1.04 818.16 1.04L818.16 1.04L818.16 1.04Q816.08 1.04 814.60-0.44L814.60-0.44L814.60-0.44Q813.12-1.92 813.12-4L813.12-4L813.12-4Q813.12-6.08 814.56-7.48L814.56-7.48L814.56-7.48Q816-8.88 818.08-8.88" fill="#000000" stroke="none" stroke-width="none" transform="translate(-409.8799743652344,23.919513204823367)" style="fill: rgb(0, 0, 0);"></path></g></g>
</g>
</g>
<style id="bounce-b487d935-772c-4779-9267-f8bdede38644" data-anikit="">@keyframes bounce-b487d935-772c-4779-9267-f8bdede38644
{
  0% {
    animation-timing-function: cubic-bezier(0.1361,0.2514,0.2175,0.8786);
    transform: translate(0,0px) scaleY(1);
  }
  37% {
    animation-timing-function: cubic-bezier(0.7674,0.1844,0.8382,0.7157);
    transform: translate(0,-39.96px) scaleY(1);
  }
  72% {
    animation-timing-function: cubic-bezier(0.1118,0.2149,0.2172,0.941);
    transform: translate(0,0px) scaleY(1);
  }
  87% {
    animation-timing-function: cubic-bezier(0.7494,0.2259,0.8209,0.6963);
    transform: translate(0,19.900000000000002px) scaleY(0.602);
  }
  100% {
    transform: translate(0,0px) scaleY(1);
  }
}</style></svg>